<svg xmlns="http://www.w3.org/2000/svg" xmlns:xlink="http://www.w3.org/1999/xlink" width="247" zoomAndPan="magnify" viewBox="0 0 185.25 158.249993" height="211" preserveAspectRatio="xMidYMid meet" version="1.0"><defs><clipPath id="81e85e9fb8"><path d="M 4.804688 76.4375 L 62.570312 76.4375 L 62.570312 101.484375 L 4.804688 101.484375 Z M 4.804688 76.4375 " clip-rule="nonzero"/></clipPath><clipPath id="62e20f7d6b"><path d="M 19.246094 78.785156 C 22.457031 83.414062 22.007812 84.609375 21.488281 85.132812 C 21.113281 85.503906 20.441406 85.652344 19.917969 85.652344 C 19.398438 85.652344 18.425781 85.355469 18.351562 84.980469 C 18.203125 84.308594 21.113281 81.324219 21.785156 81.472656 C 22.234375 81.546875 22.605469 82.890625 22.457031 83.5625 C 22.308594 84.234375 21.488281 85.28125 20.589844 85.503906 C 19.097656 85.878906 15.367188 84.460938 13.722656 83.191406 C 12.453125 82.21875 11.109375 80.578125 11.035156 79.457031 C 10.886719 78.488281 11.558594 77.292969 12.15625 76.84375 C 12.753906 76.472656 13.875 76.398438 14.46875 76.695312 C 15.140625 76.996094 16.039062 78.414062 15.890625 78.5625 C 15.738281 78.710938 12.378906 76.996094 12.453125 76.695312 C 12.53125 76.472656 14.695312 76.621094 15.964844 76.84375 C 17.605469 77.21875 20.292969 78.113281 21.488281 79.085938 C 22.382812 79.757812 23.128906 80.652344 23.203125 81.398438 C 23.203125 82.21875 22.53125 83.488281 21.5625 83.789062 C 19.917969 84.460938 13.949219 82.816406 12.828125 81.472656 C 12.230469 80.726562 12.304688 79.308594 12.679688 78.636719 C 13.125 77.964844 14.546875 77.292969 15.292969 77.441406 C 16.113281 77.59375 16.410156 78.636719 17.457031 79.457031 C 19.996094 81.25 29.472656 85.207031 31.117188 87.070312 C 31.714844 87.667969 31.863281 88.117188 31.9375 88.714844 C 31.9375 89.238281 31.789062 89.984375 31.339844 90.429688 C 30.816406 90.953125 29.773438 91.328125 28.652344 91.328125 C 26.488281 91.175781 21.414062 88.789062 19.84375 87.519531 C 19.023438 86.847656 18.574219 86.175781 18.5 85.503906 C 18.5 84.683594 19.398438 83.339844 19.996094 82.964844 C 20.367188 82.667969 20.667969 82.59375 21.1875 82.667969 C 22.382812 82.816406 25.59375 84.160156 26.636719 85.207031 C 27.308594 85.804688 27.683594 86.625 27.683594 87.296875 C 27.757812 87.894531 27.609375 88.566406 27.011719 89.011719 C 25.816406 89.984375 20.21875 91.328125 18.726562 90.429688 C 17.679688 89.757812 17.230469 87.667969 17.382812 86.476562 C 17.457031 85.429688 18.277344 84.234375 18.949219 83.789062 C 19.472656 83.488281 20.21875 83.488281 20.816406 83.636719 C 21.335938 83.789062 22.007812 84.234375 22.308594 84.757812 C 22.605469 85.503906 22.605469 87.519531 22.160156 87.742188 C 21.488281 88.042969 17.980469 85.429688 18.054688 84.683594 C 18.054688 84.234375 19.023438 83.789062 19.621094 83.714844 C 20.292969 83.5625 21.414062 83.9375 21.933594 84.382812 C 22.382812 84.757812 22.679688 85.503906 22.757812 86.027344 C 22.757812 86.625 22.757812 87.222656 22.234375 87.820312 C 20.816406 89.535156 12.378906 91.476562 10.664062 93.714844 C 9.617188 94.984375 10.441406 96.925781 9.691406 97.820312 C 9.097656 98.566406 7.675781 98.941406 6.929688 98.867188 C 6.332031 98.792969 5.738281 98.269531 5.363281 97.820312 C 5.066406 97.375 4.617188 96.550781 4.914062 96.03125 C 5.664062 94.761719 11.484375 94.089844 14.546875 92.894531 C 17.382812 91.773438 19.695312 90.058594 22.605469 89.085938 C 25.742188 88.117188 30.816406 86.699219 32.757812 87.222656 C 33.730469 87.519531 34.328125 88.117188 34.625 88.789062 C 34.847656 89.460938 34.699219 90.65625 34.328125 91.253906 C 33.953125 91.773438 33.28125 92.074219 32.234375 92.371094 C 29.699219 92.96875 22.605469 91.925781 18.949219 92.148438 C 16.410156 92.371094 13.949219 93.492188 12.605469 93.191406 C 11.859375 93.042969 11.335938 92.671875 11.035156 92.148438 C 10.664062 91.699219 10.441406 90.953125 10.515625 90.355469 C 10.515625 89.832031 10.886719 89.085938 11.261719 88.714844 C 11.707031 88.339844 12.082031 88.191406 12.976562 87.96875 C 16.113281 87.296875 31.414062 86.25 34.25 87.742188 C 35.148438 88.265625 35.519531 89.085938 35.59375 89.757812 C 35.746094 90.355469 35.671875 91.027344 35.148438 91.550781 C 34.402344 92.371094 32.535156 92.820312 30.371094 93.269531 C 26.039062 94.015625 12.605469 95.582031 10.515625 93.9375 C 9.769531 93.34375 9.617188 91.925781 9.992188 91.476562 C 10.589844 90.804688 13.722656 92.148438 15.8125 92.296875 C 18.277344 92.371094 21.710938 92.746094 23.949219 91.925781 C 25.964844 91.175781 27.234375 88.566406 28.800781 87.96875 C 30.070312 87.519531 31.117188 87.519531 32.386719 87.96875 C 34.402344 88.566406 38.132812 91.101562 38.953125 92.820312 C 39.476562 93.9375 39.105469 95.359375 38.804688 96.253906 C 38.507812 97 37.984375 97.671875 37.3125 98.046875 C 36.640625 98.492188 35.671875 98.640625 34.699219 98.566406 C 33.355469 98.34375 31.5625 97.222656 30.222656 96.328125 C 29.101562 95.433594 27.609375 94.535156 27.234375 93.34375 C 26.785156 92.222656 26.863281 90.207031 27.609375 89.460938 C 28.429688 88.714844 30.59375 88.714844 32.3125 89.160156 C 35 89.910156 38.953125 94.386719 41.566406 95.359375 C 43.285156 96.03125 45.375 95.28125 46.046875 96.03125 C 46.566406 96.625 46.566406 98.792969 46.046875 99.015625 C 45.300781 99.386719 40.820312 95.132812 39.625 93.640625 C 39.027344 92.894531 38.65625 92.296875 38.730469 91.550781 C 38.804688 90.65625 39.925781 89.085938 40.746094 88.640625 C 41.34375 88.265625 42.089844 88.339844 42.984375 88.566406 C 44.402344 88.863281 46.195312 90.65625 48.210938 91.328125 C 50.671875 92.222656 55.601562 91.773438 56.945312 92.96875 C 57.691406 93.566406 57.914062 94.535156 57.765625 95.28125 C 57.691406 95.953125 57.167969 96.851562 56.347656 97.296875 C 55.003906 98.046875 52.015625 97.820312 49.253906 97.523438 C 45.148438 97.074219 36.492188 95.28125 34.25 93.417969 C 33.28125 92.597656 32.90625 91.550781 32.984375 90.730469 C 33.058594 89.984375 33.503906 89.238281 34.476562 88.789062 C 37.761719 87.148438 57.167969 87.296875 60.675781 89.160156 C 61.945312 89.832031 62.394531 91.027344 62.46875 91.847656 C 62.542969 92.371094 62.242188 92.96875 61.871094 93.417969 C 61.347656 93.863281 60.304688 94.386719 59.558594 94.3125 C 58.886719 94.238281 57.839844 93.566406 57.542969 92.894531 C 57.167969 92.148438 57.464844 90.429688 58.0625 89.757812 C 58.511719 89.238281 59.707031 88.863281 60.453125 89.085938 C 61.199219 89.386719 62.320312 90.804688 62.46875 91.550781 C 62.617188 92.074219 62.394531 92.746094 62.019531 93.191406 C 61.570312 93.714844 61.050781 94.015625 59.855469 94.3125 C 56.421875 95.132812 41.867188 94.460938 37.910156 94.164062 C 36.417969 94.015625 35.671875 94.015625 34.847656 93.640625 C 34.25 93.417969 33.65625 93.042969 33.355469 92.519531 C 33.058594 92.074219 32.832031 91.328125 32.984375 90.730469 C 33.132812 90.058594 33.65625 89.160156 34.476562 88.789062 C 35.820312 88.191406 38.953125 88.789062 41.269531 89.3125 C 43.882812 89.832031 46.792969 91.773438 49.332031 92.296875 C 51.570312 92.671875 54.480469 91.847656 55.824219 92.371094 C 56.570312 92.597656 57.019531 92.96875 57.390625 93.417969 C 57.691406 93.9375 57.839844 94.6875 57.765625 95.28125 C 57.691406 95.878906 57.464844 96.550781 56.871094 96.925781 C 56.046875 97.523438 54.183594 97.597656 52.390625 97.375 C 49.628906 97.074219 42.238281 95.058594 42.015625 93.789062 C 41.867188 93.117188 43.359375 91.773438 44.253906 91.699219 C 45.523438 91.625 47.910156 93.640625 48.882812 94.6875 C 49.480469 95.359375 49.851562 95.953125 49.925781 96.777344 C 50.003906 97.894531 49.554688 100.058594 48.507812 100.882812 C 47.390625 101.703125 44.851562 101.402344 43.058594 101.179688 C 41.34375 101.03125 39.476562 100.65625 37.984375 99.761719 C 36.417969 98.792969 35.445312 96.777344 34.027344 95.582031 C 32.683594 94.535156 29.996094 94.015625 29.847656 93.117188 C 29.699219 92.445312 30.742188 91.101562 31.488281 91.027344 C 32.3125 90.878906 34.027344 92.597656 34.625 93.566406 C 35.074219 94.3125 35.371094 95.730469 35.148438 95.878906 C 34.847656 96.03125 32.984375 91.847656 31.714844 91.847656 C 30.519531 91.773438 29.398438 94.761719 27.90625 95.65625 C 26.414062 96.625 24.773438 97.148438 22.832031 97.449219 C 20.589844 97.820312 17.753906 97.597656 15.140625 97.296875 C 12.605469 97 9.019531 96.476562 7.527344 95.507812 C 6.707031 94.910156 6.109375 94.164062 6.109375 93.34375 C 6.109375 92.222656 7.601562 89.832031 8.648438 89.085938 C 9.46875 88.492188 10.140625 88.714844 11.484375 88.566406 C 15.066406 88.265625 27.457031 89.085938 30.96875 88.492188 C 32.3125 88.265625 32.832031 87.371094 33.65625 87.519531 C 34.328125 87.667969 35.222656 88.414062 35.445312 89.160156 C 35.746094 89.910156 35.445312 91.328125 34.773438 92.074219 C 33.730469 93.042969 31.042969 92.96875 28.503906 93.191406 C 24.398438 93.566406 15.292969 94.3125 12.605469 93.191406 C 11.410156 92.671875 10.664062 91.773438 10.515625 91.027344 C 10.363281 90.28125 10.589844 89.3125 11.261719 88.714844 C 12.53125 87.59375 16.039062 87.222656 18.949219 86.921875 C 22.90625 86.476562 30.371094 86.324219 32.757812 87.222656 C 33.730469 87.59375 34.402344 88.117188 34.625 88.789062 C 34.847656 89.609375 34.699219 90.878906 33.953125 91.699219 C 32.3125 93.34375 25.816406 93.492188 22.234375 94.6875 C 18.949219 95.804688 15.515625 97.820312 13.125 98.640625 C 11.632812 99.164062 10.515625 99.613281 9.394531 99.613281 C 8.347656 99.539062 6.484375 99.164062 6.484375 98.714844 C 6.410156 98.195312 9.917969 96.402344 10.140625 96.625 C 10.289062 96.777344 9.769531 97.894531 9.320312 98.269531 C 8.722656 98.714844 7.601562 99.015625 6.929688 98.867188 C 6.332031 98.792969 5.738281 98.269531 5.363281 97.820312 C 5.066406 97.375 4.839844 96.777344 4.914062 96.03125 C 5.066406 94.6875 6.484375 91.925781 7.453125 90.730469 C 8.050781 89.984375 8.425781 89.832031 9.320312 89.238281 C 11.410156 87.894531 17.230469 83.789062 19.621094 83.714844 C 20.816406 83.636719 21.933594 84.160156 22.308594 84.832031 C 22.757812 85.578125 22.679688 87.59375 22.234375 87.820312 C 21.5625 88.117188 17.980469 85.28125 17.980469 84.609375 C 17.980469 84.234375 18.574219 83.9375 18.949219 83.789062 C 19.472656 83.5625 20.21875 83.414062 20.816406 83.636719 C 21.414062 83.863281 22.308594 84.683594 22.53125 85.355469 C 22.757812 85.878906 22.679688 86.625 22.457031 87.222656 C 22.234375 87.820312 21.1875 89.011719 20.964844 88.9375 C 20.742188 88.863281 21.636719 86.996094 21.261719 86.476562 C 20.890625 85.953125 18.574219 86.324219 18.5 86.027344 C 18.5 85.804688 19.917969 85.132812 20.890625 84.980469 C 22.382812 84.683594 25.59375 84.535156 26.636719 85.207031 C 27.234375 85.503906 27.535156 86.101562 27.683594 86.699219 C 27.757812 87.371094 27.535156 88.492188 27.011719 89.011719 C 26.5625 89.535156 25.667969 89.910156 24.773438 89.832031 C 23.351562 89.757812 20.292969 88.191406 19.324219 87.148438 C 18.726562 86.476562 18.425781 85.578125 18.574219 84.832031 C 18.652344 84.160156 19.324219 83.265625 19.996094 82.964844 C 20.742188 82.519531 21.933594 82.519531 23.128906 82.742188 C 25.144531 83.191406 29.25 85.355469 30.667969 86.699219 C 31.414062 87.371094 31.789062 88.042969 31.9375 88.714844 C 32.011719 89.238281 31.714844 89.984375 31.339844 90.429688 C 31.042969 90.878906 30.371094 91.253906 29.847656 91.328125 C 29.25 91.476562 28.878906 91.402344 28.054688 91.027344 C 25.445312 90.058594 15.21875 84.160156 13.277344 81.921875 C 12.53125 81.101562 12.230469 80.429688 12.304688 79.757812 C 12.453125 79.011719 13.203125 77.890625 14.097656 77.515625 C 15.664062 76.996094 20.070312 78.414062 21.488281 79.085938 C 22.234375 79.457031 22.605469 79.757812 22.90625 80.277344 C 23.128906 80.726562 23.203125 81.472656 23.128906 81.996094 C 22.980469 82.59375 22.605469 83.191406 22.085938 83.488281 C 21.636719 83.863281 21.1875 84.085938 20.367188 83.9375 C 18.5 83.714844 11.410156 80.355469 10.960938 78.859375 C 10.8125 78.113281 11.632812 77.21875 12.15625 76.84375 C 12.679688 76.546875 13.351562 76.324219 13.949219 76.546875 C 14.769531 76.84375 15.367188 78.5625 16.484375 79.308594 C 17.902344 80.277344 20.890625 80.578125 21.785156 81.472656 C 22.234375 81.921875 22.457031 82.445312 22.457031 82.964844 C 22.53125 83.636719 22.085938 84.609375 21.636719 85.054688 C 21.1875 85.429688 20.515625 85.578125 19.996094 85.578125 C 19.472656 85.503906 18.5 85.28125 18.425781 84.90625 C 18.277344 84.234375 21.039062 81.398438 21.636719 81.546875 C 22.085938 81.621094 22.457031 82.964844 22.382812 83.636719 C 22.234375 84.308594 21.636719 85.207031 21.039062 85.429688 C 20.367188 85.726562 19.171875 85.503906 18.351562 84.980469 C 17.007812 84.160156 14.992188 81.175781 14.621094 79.832031 C 14.46875 79.011719 14.621094 78.265625 14.917969 77.742188 C 15.21875 77.21875 16.039062 76.621094 16.710938 76.546875 C 17.308594 76.472656 18.277344 76.84375 18.652344 77.292969 C 19.023438 77.667969 19.246094 78.785156 19.246094 78.785156 " clip-rule="nonzero"/></clipPath><clipPath id="2b305946c3"><path d="M 54.933594 91.492188 L 138.105469 91.492188 L 138.105469 104.015625 L 54.933594 104.015625 Z M 54.933594 91.492188 " clip-rule="nonzero"/></clipPath><clipPath id="a14090153d"><path d="M 60.898438 93.117188 C 66.273438 93.789062 67.171875 94.164062 68.289062 94.761719 C 69.558594 95.507812 72.023438 96.777344 72.171875 97.820312 C 72.320312 98.640625 70.976562 100.058594 70.230469 100.507812 C 69.558594 100.808594 68.960938 100.730469 67.917969 100.582031 C 65.453125 100.210938 57.839844 98.046875 56.121094 96.476562 C 55.300781 95.804688 54.929688 95.058594 55.003906 94.386719 C 55.078125 93.566406 55.824219 92.296875 56.644531 92 C 57.691406 91.550781 59.40625 92.222656 61.050781 92.96875 C 63.585938 94.238281 67.019531 99.761719 69.933594 99.835938 C 72.621094 99.835938 75.902344 94.609375 77.84375 94.089844 C 78.890625 93.863281 79.710938 94.015625 80.308594 94.460938 C 80.90625 94.910156 81.429688 95.953125 81.429688 96.625 C 81.429688 97.375 81.054688 98.417969 80.234375 98.792969 C 78.589844 99.6875 71.722656 98.195312 69.859375 97.523438 C 69.035156 97.222656 68.664062 96.925781 68.289062 96.476562 C 67.992188 95.953125 67.691406 95.28125 67.84375 94.6875 C 67.992188 93.863281 68.589844 92.96875 69.785156 92.371094 C 73.441406 90.804688 92.625 91.847656 95.984375 92.894531 C 96.878906 93.191406 97.179688 93.492188 97.476562 93.9375 C 97.851562 94.460938 98.074219 95.132812 97.925781 95.730469 C 97.777344 96.476562 96.953125 97.523438 95.984375 97.96875 C 94.566406 98.566406 91.355469 98.34375 89.789062 98.046875 C 88.742188 97.746094 88.371094 97.074219 87.25 96.777344 C 85.382812 96.402344 81.429688 96.625 79.5625 97 C 78.441406 97.148438 77.472656 98.121094 77.097656 97.820312 C 76.652344 97.597656 76.425781 96.03125 76.875 95.433594 C 77.695312 94.3125 81.800781 94.164062 84.488281 93.863281 C 87.550781 93.566406 92.101562 93.417969 94.34375 93.863281 C 95.535156 94.164062 96.058594 94.984375 96.953125 95.058594 C 97.851562 95.207031 98.746094 94.386719 99.792969 94.460938 C 101.058594 94.535156 103.074219 95.207031 103.898438 95.953125 C 104.492188 96.625 104.792969 97.597656 104.644531 98.34375 C 104.492188 99.015625 103.898438 99.761719 103.148438 100.285156 C 102.253906 100.882812 100.835938 101.328125 99.417969 101.253906 C 97.625 101.179688 94.191406 100.136719 93.371094 99.015625 C 92.847656 98.34375 92.921875 97.222656 93.222656 96.625 C 93.519531 95.953125 94.417969 95.28125 95.164062 95.058594 C 95.910156 94.910156 96.65625 95.132812 97.550781 95.507812 C 99.042969 96.179688 101.433594 99.6875 102.554688 99.613281 C 103.300781 99.539062 103.300781 98.195312 104.195312 97.671875 C 105.988281 96.625 111.882812 95.207031 113.675781 95.582031 C 114.496094 95.730469 114.945312 96.179688 115.242188 96.625 C 115.617188 97.074219 115.839844 97.820312 115.691406 98.492188 C 115.542969 99.238281 114.796875 100.285156 113.75 100.730469 C 111.957031 101.480469 106.582031 100.957031 105.015625 99.910156 C 104.121094 99.238281 103.671875 97.96875 103.746094 97.148438 C 103.820312 96.402344 104.34375 95.730469 105.238281 95.207031 C 107.253906 94.015625 113.152344 93.863281 117.183594 93.417969 C 121.289062 93.042969 127.484375 91.925781 129.796875 92.894531 C 130.917969 93.34375 131.589844 94.386719 131.738281 95.132812 C 131.890625 95.730469 131.664062 96.476562 131.292969 96.925781 C 130.992188 97.375 130.621094 97.746094 129.796875 97.96875 C 127.859375 98.640625 120.09375 99.386719 118.75 98.046875 C 118.003906 97.375 117.929688 95.28125 118.527344 94.761719 C 119.648438 93.9375 127.335938 96.625 128.679688 98.269531 C 129.351562 99.089844 129.425781 100.507812 129.050781 101.179688 C 128.679688 101.925781 127.484375 102.523438 126.441406 102.671875 C 124.945312 102.824219 122.855469 101.402344 120.839844 101.105469 C 118.527344 100.808594 114.644531 101.777344 113.226562 101.03125 C 112.40625 100.582031 111.882812 99.6875 111.808594 98.941406 C 111.734375 98.269531 112.183594 97.148438 112.703125 96.625 C 113.078125 96.253906 113.824219 95.953125 114.421875 96.03125 C 115.242188 96.03125 115.988281 97.148438 116.960938 97.449219 C 118.003906 97.746094 119.273438 97.222656 120.617188 97.449219 C 122.484375 97.671875 125.320312 99.3125 126.886719 99.386719 C 127.859375 99.386719 128.378906 99.089844 129.203125 98.714844 C 130.320312 98.195312 132.113281 97.074219 132.933594 96.179688 C 133.53125 95.582031 133.53125 94.6875 134.054688 94.3125 C 134.5 94.015625 135.097656 93.789062 135.621094 93.9375 C 136.441406 94.089844 137.785156 95.207031 138.011719 95.953125 C 138.234375 96.703125 137.785156 97.820312 137.339844 98.34375 C 136.964844 98.792969 136.367188 99.015625 135.84375 99.089844 C 135.324219 99.164062 134.652344 99.089844 134.203125 98.792969 C 133.679688 98.417969 132.933594 97.449219 132.859375 96.777344 C 132.785156 96.03125 133.234375 94.984375 133.828125 94.460938 C 134.351562 94.015625 135.546875 93.789062 136.21875 94.015625 C 136.890625 94.238281 137.710938 95.058594 137.933594 95.730469 C 138.160156 96.402344 137.933594 97.296875 137.488281 98.121094 C 136.890625 99.238281 135.324219 100.65625 133.90625 101.554688 C 132.410156 102.597656 130.917969 103.644531 128.605469 103.941406 C 124.945312 104.390625 116.136719 102.226562 113.824219 101.253906 C 112.929688 100.882812 112.554688 100.65625 112.257812 100.136719 C 111.882812 99.6875 111.734375 98.941406 111.808594 98.34375 C 111.882812 97.746094 112.257812 97.074219 112.703125 96.703125 C 113.078125 96.253906 113.527344 96.105469 114.421875 96.03125 C 116.734375 95.730469 125.394531 96.179688 127.632812 97.523438 C 128.679688 98.195312 129.351562 99.164062 129.351562 99.984375 C 129.351562 100.808594 128.679688 102.074219 127.707031 102.449219 C 125.917969 103.121094 120.167969 100.882812 118.230469 99.984375 C 117.183594 99.539062 116.511719 99.3125 116.0625 98.566406 C 115.390625 97.523438 115.09375 94.835938 115.691406 93.863281 C 116.214844 93.117188 117.332031 93.042969 118.75 92.820312 C 121.289062 92.371094 128.457031 91.925781 130.394531 93.117188 C 131.367188 93.714844 131.890625 94.910156 131.738281 95.730469 C 131.664062 96.550781 130.992188 97.449219 129.796875 97.96875 C 126.886719 99.386719 114.796875 98.195312 111.4375 99.015625 C 110.167969 99.386719 109.71875 100.058594 108.824219 100.285156 C 107.777344 100.433594 106.433594 100.433594 105.613281 100.136719 C 104.941406 99.910156 104.417969 99.539062 104.121094 99.015625 C 103.746094 98.417969 103.597656 97.222656 103.898438 96.550781 C 104.195312 95.878906 104.867188 95.28125 105.835938 94.984375 C 107.628906 94.460938 112.78125 95.058594 114.273438 95.804688 C 115.019531 96.179688 115.316406 96.625 115.542969 97.222656 C 115.765625 97.746094 115.839844 98.492188 115.542969 99.089844 C 115.316406 99.6875 114.71875 100.210938 113.75 100.730469 C 111.660156 101.925781 104.792969 103.792969 102.253906 103.941406 C 101.132812 104.015625 100.613281 104.015625 99.714844 103.570312 C 98.222656 102.898438 94.640625 99.984375 94.789062 99.539062 C 94.863281 99.3125 97.027344 99.761719 97.027344 99.835938 C 97.027344 99.910156 94.9375 100.285156 94.265625 99.910156 C 93.59375 99.613281 93.074219 98.566406 93 97.820312 C 92.921875 97.222656 93.222656 96.476562 93.519531 96.03125 C 93.894531 95.582031 94.417969 95.207031 95.164062 95.058594 C 96.355469 94.910156 98.746094 96.328125 100.089844 96.253906 C 101.132812 96.179688 102.03125 95.207031 102.777344 95.359375 C 103.375 95.433594 103.972656 95.953125 104.269531 96.476562 C 104.570312 97 104.792969 97.746094 104.644531 98.34375 C 104.417969 99.089844 103.746094 100.058594 102.554688 100.433594 C 99.714844 101.480469 88.519531 97.523438 85.382812 98.269531 C 83.964844 98.640625 83.890625 99.835938 82.695312 100.210938 C 80.832031 100.730469 76.726562 100.808594 75.082031 100.058594 C 73.964844 99.613281 73.140625 98.867188 72.917969 97.96875 C 72.621094 96.851562 73.21875 94.6875 74.1875 93.640625 C 75.308594 92.519531 77.246094 92.074219 79.5625 91.773438 C 83.519531 91.175781 93.371094 91.773438 95.984375 92.894531 C 97.027344 93.34375 97.550781 93.789062 97.777344 94.535156 C 98.074219 95.28125 97.777344 96.777344 97.105469 97.375 C 96.132812 98.269531 93.820312 97.894531 91.28125 98.046875 C 86.429688 98.269531 73.066406 99.015625 69.859375 97.523438 C 68.664062 96.925781 67.992188 96.105469 67.84375 95.28125 C 67.769531 94.460938 68.289062 93.117188 69.1875 92.597656 C 70.828125 91.773438 76.128906 92.96875 78.070312 93.492188 C 79.039062 93.714844 80.234375 94.238281 80.234375 94.386719 C 80.160156 94.609375 77.324219 94.460938 77.324219 94.386719 C 77.324219 94.386719 79.113281 93.863281 79.785156 94.164062 C 80.53125 94.535156 81.429688 95.878906 81.429688 96.625 C 81.429688 97.375 80.90625 98.121094 80.234375 98.792969 C 79.261719 99.835938 77.023438 100.808594 75.605469 101.628906 C 74.484375 102.226562 73.664062 102.898438 72.546875 103.34375 C 71.425781 103.71875 70.230469 104.089844 68.960938 103.941406 C 67.246094 103.71875 65.378906 102.597656 63.363281 101.480469 C 60.976562 100.136719 56.792969 97.523438 55.601562 96.105469 C 55.152344 95.433594 55.003906 94.910156 55.003906 94.386719 C 55.003906 93.789062 55.152344 93.042969 55.675781 92.671875 C 56.347656 92.074219 57.914062 91.847656 59.40625 92 C 61.496094 92.296875 65.15625 95.058594 67.019531 95.507812 C 67.992188 95.730469 69.113281 95.28125 69.335938 95.65625 C 69.484375 96.03125 67.992188 97.222656 68.066406 97.96875 C 68.066406 98.640625 69.410156 99.613281 69.1875 99.910156 C 68.664062 100.582031 60.75 98.566406 59.40625 97.148438 C 58.734375 96.476562 58.511719 95.28125 58.734375 94.609375 C 59.035156 93.9375 60.898438 93.117188 60.898438 93.117188 " clip-rule="nonzero"/></clipPath><clipPath id="2a34558576"><path d="M 115.476562 85.765625 L 167.410156 85.765625 L 167.410156 106.292969 L 115.476562 106.292969 Z M 115.476562 85.765625 " clip-rule="nonzero"/></clipPath><clipPath id="b4b80e14b1"><path d="M 134.425781 96.703125 C 118.675781 97.074219 118.378906 96.777344 118.003906 96.328125 C 117.707031 95.953125 117.40625 95.28125 117.558594 94.6875 C 117.707031 94.015625 118.152344 93.042969 119.273438 92.519531 C 122.183594 91.253906 135.996094 92.074219 138.605469 93.492188 C 139.503906 94.015625 139.875 94.761719 139.949219 95.433594 C 140.023438 96.105469 139.726562 97 139.128906 97.597656 C 137.933594 98.867188 134.5 99.984375 131.664062 100.507812 C 128.304688 101.179688 120.320312 100.882812 120.320312 100.65625 C 120.320312 100.582031 122.109375 100.136719 122.929688 100.285156 C 123.828125 100.359375 124.5 101.402344 125.320312 101.480469 C 126.066406 101.554688 126.664062 101.253906 127.558594 100.882812 C 129.203125 100.210938 132.636719 98.417969 133.90625 97.074219 C 134.726562 96.328125 134.578125 95.582031 135.398438 94.6875 C 136.667969 93.269531 141.144531 89.460938 141.742188 89.832031 C 142.117188 90.058594 141.144531 91.699219 141.367188 92.519531 C 141.519531 93.191406 142.9375 94.015625 142.710938 94.3125 C 142.414062 94.835938 137.785156 94.535156 136.816406 93.640625 C 136.070312 93.042969 135.84375 91.550781 136.070312 90.730469 C 136.292969 90.058594 137.1875 89.160156 137.933594 89.085938 C 138.757812 89.085938 140.175781 91.253906 140.996094 91.175781 C 141.667969 91.101562 141.890625 89.832031 142.5625 89.535156 C 143.308594 89.238281 144.28125 89.3125 145.175781 89.535156 C 146.222656 89.910156 148.085938 90.65625 148.460938 91.550781 C 148.832031 92.371094 148.460938 93.714844 147.789062 94.535156 C 146.59375 95.804688 142.191406 97.449219 140.695312 97.375 C 139.949219 97.296875 139.429688 96.851562 139.054688 96.402344 C 138.683594 95.804688 138.308594 94.609375 138.605469 93.9375 C 139.128906 93.191406 141.144531 92.894531 142.636719 92.597656 C 144.207031 92.296875 145.847656 92.148438 147.9375 92.296875 C 150.921875 92.371094 156.296875 93.863281 158.613281 93.863281 C 159.730469 93.9375 160.476562 93.9375 161.148438 93.566406 C 161.746094 93.191406 162.046875 91.625 162.417969 91.625 C 162.867188 91.625 163.761719 93.640625 163.613281 93.789062 C 163.390625 93.9375 161.449219 90.953125 159.582031 90.503906 C 156.671875 89.832031 149.65625 93.269531 146.894531 93.117188 C 145.625 93.117188 144.652344 92.894531 144.132812 92.296875 C 143.609375 91.773438 143.382812 90.65625 143.535156 89.910156 C 143.683594 89.238281 144.207031 88.566406 145.175781 88.117188 C 147.414062 87.222656 155.253906 87.96875 158.539062 88.492188 C 160.554688 88.863281 162.492188 89.160156 163.242188 90.058594 C 163.835938 90.65625 163.914062 91.773438 163.761719 92.445312 C 163.539062 93.117188 162.71875 94.015625 161.972656 94.164062 C 161.300781 94.386719 160.105469 94.164062 159.582031 93.714844 C 158.984375 93.269531 158.613281 92.148438 158.613281 91.476562 C 158.613281 90.953125 158.835938 90.355469 159.210938 89.910156 C 159.730469 89.460938 160.851562 89.011719 161.523438 89.085938 C 162.121094 89.085938 162.71875 89.386719 163.089844 89.832031 C 163.539062 90.355469 163.988281 91.476562 163.761719 92.148438 C 163.539062 92.96875 162.644531 93.863281 161.449219 94.3125 C 159.058594 95.132812 152.265625 94.015625 149.28125 93.714844 C 147.488281 93.492188 146.070312 93.492188 145.101562 93.042969 C 144.503906 92.746094 143.980469 92.296875 143.757812 91.773438 C 143.460938 91.253906 143.382812 90.503906 143.535156 89.910156 C 143.757812 89.3125 144.207031 88.640625 145.175781 88.117188 C 147.488281 86.847656 156.296875 85.878906 159.433594 85.878906 C 160.925781 85.804688 161.671875 85.726562 162.71875 86.324219 C 164.210938 87.070312 166.523438 89.386719 167.121094 90.878906 C 167.496094 91.847656 167.347656 92.96875 167.046875 93.9375 C 166.675781 94.835938 166.003906 95.65625 165.179688 96.402344 C 164.0625 97.375 162.867188 98.640625 160.777344 99.164062 C 156.894531 100.058594 145.921875 97.96875 142.5625 97.523438 C 141.292969 97.375 139.949219 97.296875 139.949219 97.074219 C 139.949219 96.851562 143.308594 95.953125 143.382812 96.105469 C 143.460938 96.253906 142.488281 97.074219 141.964844 97.222656 C 141.367188 97.449219 140.621094 97.449219 140.101562 97.148438 C 139.429688 96.777344 138.457031 95.433594 138.53125 94.609375 C 138.53125 93.714844 139.503906 92.671875 140.398438 91.925781 C 141.667969 90.953125 144.578125 89.683594 145.996094 89.910156 C 147.042969 89.984375 148.085938 90.878906 148.460938 91.550781 C 148.757812 92.148438 148.757812 92.894531 148.460938 93.492188 C 148.160156 94.089844 147.566406 94.761719 146.667969 95.132812 C 144.878906 95.730469 139.726562 95.507812 138.011719 94.609375 C 137.039062 94.015625 136.21875 92.296875 136.292969 92.222656 C 136.367188 92.148438 138.605469 94.164062 138.53125 94.3125 C 138.457031 94.460938 137.261719 94.015625 136.816406 93.640625 C 136.367188 93.269531 135.996094 92.597656 135.917969 92 C 135.84375 91.402344 136.070312 90.65625 136.367188 90.207031 C 136.742188 89.683594 137.1875 89.3125 137.933594 89.085938 C 139.203125 88.714844 142.339844 88.566406 143.683594 89.160156 C 144.726562 89.535156 145.921875 90.355469 145.921875 91.402344 C 145.921875 93.640625 138.382812 99.910156 134.800781 102.449219 C 132.1875 104.316406 128.902344 105.660156 127.035156 106.105469 C 125.992188 106.257812 125.542969 106.257812 124.5 106.03125 C 122.632812 105.585938 118.378906 104.089844 117.035156 102.824219 C 116.214844 102.152344 115.914062 101.402344 115.691406 100.65625 C 115.464844 99.835938 115.390625 98.867188 115.691406 98.195312 C 116.0625 97.375 116.734375 96.703125 117.929688 96.179688 C 120.394531 95.207031 127.410156 96.179688 130.992188 95.507812 C 133.53125 94.984375 135.84375 93.042969 137.414062 93.191406 C 138.457031 93.34375 139.503906 94.164062 139.800781 94.835938 C 140.101562 95.507812 139.875 96.625 139.503906 97.148438 C 139.203125 97.671875 138.832031 97.96875 138.011719 98.195312 C 135.621094 98.941406 125.992188 98.492188 122.410156 97.894531 C 120.46875 97.523438 118.75 97.148438 118.003906 96.328125 C 117.558594 95.878906 117.480469 95.207031 117.558594 94.6875 C 117.558594 94.164062 117.707031 93.566406 118.304688 93.117188 C 119.273438 92.371094 122.035156 92.148438 124.273438 92 C 127.335938 91.699219 133.15625 91.550781 134.949219 92.148438 C 135.695312 92.371094 135.996094 92.671875 136.292969 93.042969 C 136.589844 93.492188 136.742188 94.164062 136.667969 94.609375 C 136.589844 95.132812 136.292969 95.730469 135.917969 96.105469 C 135.546875 96.402344 134.425781 96.703125 134.425781 96.703125 " clip-rule="nonzero"/></clipPath><clipPath id="72de4d6b58"><path d="M 157.835938 69.164062 L 181.148438 69.164062 L 181.148438 95.203125 L 157.835938 95.203125 Z M 157.835938 69.164062 " clip-rule="nonzero"/></clipPath><clipPath id="bba5c13963"><path d="M 166.449219 70.648438 C 176.003906 72.21875 176.304688 72.664062 176.453125 73.113281 C 176.675781 73.636719 176.675781 74.382812 176.453125 74.828125 C 176.078125 75.5 175.035156 76.25 174.136719 76.398438 C 173.242188 76.621094 171.972656 76.25 171.078125 75.800781 C 170.332031 75.425781 169.808594 74.234375 169.0625 74.007812 C 168.390625 73.785156 166.898438 73.933594 166.75 74.382812 C 166.523438 74.980469 169.660156 76.546875 170.109375 78.039062 C 170.703125 79.605469 170.40625 81.546875 169.734375 83.5625 C 168.691406 86.476562 165.40625 91.476562 163.164062 93.269531 C 161.746094 94.460938 159.582031 95.433594 158.761719 94.984375 C 157.941406 94.535156 157.792969 92.820312 157.867188 91.328125 C 158.015625 88.492188 160.179688 82.144531 162.195312 79.832031 C 163.613281 78.265625 165.332031 77.292969 167.121094 77.292969 C 169.359375 77.292969 174.660156 80.128906 174.734375 81.175781 C 174.808594 81.773438 173.542969 82.667969 172.71875 82.667969 C 171.300781 82.59375 168.242188 79.53125 167.421875 78.113281 C 166.898438 77.292969 166.675781 76.398438 166.824219 75.726562 C 167.046875 74.980469 167.941406 74.15625 168.539062 73.859375 C 168.914062 73.710938 169.210938 73.636719 169.808594 73.785156 C 170.929688 74.007812 173.617188 76.023438 174.886719 76.996094 C 175.707031 77.667969 176.453125 78.1875 176.824219 78.933594 C 177.199219 79.683594 177.421875 80.578125 177.273438 81.546875 C 176.976562 82.890625 175.78125 84.980469 174.289062 85.953125 C 172.644531 87.070312 168.988281 87.296875 167.269531 87.296875 C 166.226562 87.296875 165.40625 87.296875 164.882812 86.847656 C 164.285156 86.324219 163.6875 84.757812 163.914062 84.011719 C 164.136719 83.191406 165.105469 82.371094 166.226562 82.070312 C 167.941406 81.472656 171.375 82.667969 173.691406 82.59375 C 175.632812 82.519531 177.871094 81.25 179.140625 81.621094 C 179.960938 81.921875 180.632812 82.742188 180.929688 83.339844 C 181.082031 83.863281 181.082031 84.535156 180.855469 85.054688 C 180.558594 85.652344 179.738281 86.625 179.066406 86.773438 C 178.167969 86.921875 176.527344 86.175781 176.078125 85.503906 C 175.632812 84.90625 175.632812 83.714844 176.003906 83.042969 C 176.304688 82.371094 177.199219 81.621094 177.945312 81.546875 C 178.839844 81.472656 180.335938 82.445312 180.78125 83.117188 C 181.082031 83.5625 181.15625 84.234375 180.929688 84.757812 C 180.707031 85.429688 180.109375 86.175781 179.289062 86.625 C 178.167969 87.371094 176.152344 87.820312 174.214844 87.894531 C 171.601562 88.042969 166.375 87.894531 164.882812 86.847656 C 164.136719 86.25 163.835938 85.355469 163.761719 84.609375 C 163.761719 84.011719 163.988281 83.414062 164.507812 82.890625 C 165.554688 81.921875 171.078125 81.621094 171.226562 80.652344 C 171.375 79.832031 167.644531 78.636719 167.046875 77.59375 C 166.675781 76.921875 166.675781 76.324219 166.824219 75.726562 C 167.046875 75.054688 167.792969 74.082031 168.539062 73.859375 C 169.4375 73.636719 171.152344 74.308594 172.347656 74.980469 C 173.765625 75.800781 175.40625 77.292969 176.230469 78.859375 C 176.976562 80.355469 177.648438 82.742188 177.273438 83.9375 C 177.125 84.757812 176.453125 85.355469 175.78125 85.652344 C 174.886719 86.027344 173.46875 85.726562 172.347656 85.503906 C 171.375 85.28125 170.332031 84.980469 169.585938 84.382812 C 168.839844 83.714844 168.464844 81.847656 167.867188 81.773438 C 167.269531 81.699219 166.523438 82.519531 165.851562 83.414062 C 164.433594 85.28125 161.746094 93.789062 161.449219 93.714844 C 161.300781 93.714844 162.121094 91.925781 161.820312 91.402344 C 161.449219 90.953125 159.65625 91.550781 159.433594 90.878906 C 158.761719 89.535156 166.449219 82.144531 166.003906 79.605469 C 165.703125 78.039062 162.792969 77.59375 162.046875 76.324219 C 161.449219 75.277344 161.300781 73.859375 161.375 72.816406 C 161.449219 71.992188 161.597656 71.171875 162.121094 70.574219 C 162.792969 69.902344 164.582031 69.53125 165.703125 69.304688 C 166.824219 69.15625 167.644531 69.15625 168.839844 69.378906 C 170.628906 69.753906 174.0625 70.722656 175.332031 71.84375 C 176.078125 72.515625 176.601562 73.5625 176.601562 74.308594 C 176.601562 74.828125 176.152344 75.425781 175.78125 75.800781 C 175.40625 76.171875 174.960938 76.324219 174.136719 76.398438 C 172.421875 76.546875 166.597656 75.800781 165.03125 74.980469 C 164.433594 74.679688 164.136719 74.308594 163.914062 73.859375 C 163.6875 73.335938 163.6875 72.664062 163.835938 72.21875 C 163.988281 71.695312 164.433594 71.171875 164.882812 70.949219 C 165.332031 70.648438 166.449219 70.648438 166.449219 70.648438 " clip-rule="nonzero"/></clipPath><clipPath id="49628c6aa5"><path d="M 69.550781 95.085938 L 73.828125 95.085938 L 73.828125 98.714844 L 69.550781 98.714844 Z M 69.550781 95.085938 " clip-rule="nonzero"/></clipPath><clipPath id="1c290cd606"><path d="M 73.8125 96.402344 C 71.875 99.386719 70.15625 98.867188 69.707031 98.195312 C 69.335938 97.597656 69.707031 95.730469 70.304688 95.28125 C 70.828125 94.835938 73.21875 95.433594 73.21875 95.433594 " clip-rule="nonzero"/></clipPath><clipPath id="204a1bb6b3"><path d="M 69.027344 97.25 L 73.304688 97.25 L 73.304688 100.878906 L 69.027344 100.878906 Z M 69.027344 97.25 " clip-rule="nonzero"/></clipPath><clipPath id="c3d19fd96d"><path d="M 73.292969 98.492188 C 71.351562 101.554688 69.558594 100.957031 69.1875 100.359375 C 68.8125 99.6875 69.1875 97.894531 69.707031 97.449219 C 70.304688 97 72.695312 97.597656 72.695312 97.597656 " clip-rule="nonzero"/></clipPath><clipPath id="17b3a095bb"><path d="M 16.835938 97.347656 L 68.796875 97.347656 L 68.796875 116.207031 L 16.835938 116.207031 Z M 16.835938 97.347656 " clip-rule="nonzero"/></clipPath><clipPath id="4a0d4755aa"><path d="M 28.429688 101.105469 C 25.144531 106.554688 24.023438 112.078125 22.832031 113.945312 C 22.234375 114.914062 21.710938 115.511719 20.964844 115.8125 C 20.292969 116.109375 19.398438 116.257812 18.726562 116.035156 C 18.128906 115.8125 17.308594 115.0625 17.082031 114.390625 C 16.859375 113.796875 17.15625 112.601562 17.457031 112.078125 C 17.679688 111.707031 18.054688 111.257812 18.351562 111.332031 C 19.023438 111.480469 20.964844 115.289062 20.667969 115.886719 C 20.441406 116.257812 19.398438 116.257812 18.875 116.035156 C 18.203125 115.8125 17.382812 115.140625 17.15625 114.46875 C 16.933594 113.796875 17.007812 112.972656 17.53125 112.152344 C 18.726562 110.285156 25.070312 107.75 27.234375 105.734375 C 28.578125 104.464844 28.878906 102.746094 29.996094 102.152344 C 30.890625 101.703125 32.234375 101.554688 32.984375 101.851562 C 33.503906 102.074219 33.953125 102.746094 34.175781 103.269531 C 34.328125 103.792969 34.476562 104.6875 34.101562 105.136719 C 33.503906 105.734375 31.117188 106.03125 29.847656 105.660156 C 28.429688 105.285156 26.710938 103.644531 26.039062 102.523438 C 25.59375 101.777344 25.292969 100.808594 25.519531 100.136719 C 25.816406 99.386719 26.9375 98.417969 27.832031 98.269531 C 28.878906 98.121094 30.59375 98.941406 31.339844 99.6875 C 32.011719 100.359375 32.3125 101.328125 32.386719 102.226562 C 32.460938 103.046875 32.3125 104.015625 31.789062 104.835938 C 31.117188 106.105469 29.324219 107.601562 28.054688 108.347656 C 27.160156 108.941406 25.964844 109.691406 25.445312 109.390625 C 24.847656 109.09375 24.921875 106.257812 24.847656 106.257812 C 24.847656 106.257812 25.816406 109.09375 25.292969 109.839844 C 24.847656 110.511719 23.203125 110.882812 22.457031 110.660156 C 21.710938 110.511719 20.964844 109.613281 20.742188 108.941406 C 20.515625 108.195312 20.816406 107.152344 21.1875 106.554688 C 21.636719 105.808594 22.308594 105.285156 23.203125 104.914062 C 24.472656 104.316406 26.488281 104.242188 28.578125 104.089844 C 31.5625 103.941406 36.9375 103.792969 39.253906 104.613281 C 40.597656 105.0625 41.714844 105.882812 42.089844 106.628906 C 42.386719 107.226562 42.3125 107.972656 42.089844 108.496094 C 41.789062 109.167969 41.269531 109.765625 40.222656 110.136719 C 37.761719 111.035156 28.652344 110.734375 25.964844 109.839844 C 24.695312 109.464844 23.875 108.867188 23.503906 108.195312 C 23.203125 107.601562 23.277344 106.851562 23.503906 106.332031 C 23.652344 105.734375 24.101562 105.210938 24.695312 104.914062 C 25.59375 104.464844 27.160156 104.464844 28.355469 104.613281 C 29.472656 104.761719 30.667969 104.988281 31.5625 105.808594 C 32.609375 106.777344 34.328125 109.539062 33.953125 110.4375 C 33.730469 111.109375 31.863281 111.480469 31.042969 111.480469 C 30.371094 111.40625 29.773438 111.109375 29.324219 110.660156 C 28.953125 110.210938 28.652344 109.539062 28.578125 108.941406 C 28.578125 108.347656 28.800781 107.601562 29.175781 107.152344 C 29.550781 106.703125 29.921875 106.40625 30.816406 106.179688 C 33.503906 105.507812 44.628906 107.898438 48.734375 106.703125 C 51.121094 106.03125 52.539062 103.195312 53.957031 103.121094 C 55.003906 103.121094 56.199219 104.015625 56.496094 104.761719 C 56.871094 105.507812 56.644531 107.152344 55.972656 107.675781 C 54.929688 108.496094 50.898438 107.972656 49.777344 107.449219 C 49.332031 107.300781 49.03125 107.003906 48.882812 106.628906 C 48.582031 105.957031 48.507812 104.242188 49.03125 103.570312 C 49.628906 102.824219 50.898438 102.597656 52.464844 102.449219 C 55.601562 102.152344 64.335938 102.449219 66.796875 104.464844 C 68.289062 105.734375 69.113281 108.792969 68.664062 109.691406 C 68.363281 110.363281 67.394531 110.210938 66.125 110.363281 C 62.914062 110.734375 51.644531 110.957031 48.660156 109.988281 C 47.464844 109.539062 46.71875 109.09375 46.492188 108.347656 C 46.195312 107.601562 46.492188 106.03125 47.089844 105.433594 C 47.613281 104.914062 48.734375 104.613281 49.40625 104.761719 C 50.078125 104.835938 51.046875 105.660156 51.046875 105.734375 C 50.972656 105.882812 48.136719 105.210938 48.0625 104.835938 C 48.0625 104.464844 49.851562 103.492188 50.671875 103.570312 C 51.421875 103.644531 52.316406 104.464844 52.613281 105.0625 C 52.914062 105.585938 52.988281 106.40625 52.6875 106.929688 C 52.390625 107.675781 51.195312 108.71875 50.375 108.792969 C 49.628906 108.867188 48.507812 108.347656 48.0625 107.75 C 47.613281 107.152344 47.464844 105.957031 47.6875 105.285156 C 47.988281 104.613281 48.808594 103.71875 49.554688 103.644531 C 50.375 103.492188 52.015625 104.164062 52.464844 104.835938 C 52.914062 105.433594 52.914062 106.628906 52.613281 107.300781 C 52.242188 107.972656 51.34375 108.644531 50.597656 108.792969 C 49.851562 108.867188 48.734375 108.570312 48.285156 107.972656 C 47.761719 107.300781 47.539062 105.507812 47.988281 104.761719 C 48.285156 104.089844 49.332031 103.492188 50.078125 103.492188 C 50.898438 103.570312 52.242188 104.390625 52.613281 105.0625 C 52.914062 105.734375 52.839844 106.777344 52.464844 107.523438 C 52.09375 108.347656 50.898438 109.464844 50.003906 109.691406 C 49.03125 109.988281 47.316406 109.539062 46.792969 108.867188 C 46.269531 108.347656 46.195312 107.152344 46.417969 106.480469 C 46.644531 105.808594 47.464844 104.914062 48.210938 104.761719 C 48.957031 104.613281 50.671875 105.957031 51.046875 105.734375 C 51.195312 105.660156 50.898438 105.285156 51.121094 105.136719 C 52.015625 104.390625 61.050781 104.988281 63.511719 105.136719 C 64.558594 105.210938 65.378906 104.835938 65.753906 105.359375 C 66.347656 106.03125 66.648438 108.867188 65.753906 109.691406 C 63.886719 111.257812 52.09375 109.167969 49.777344 107.449219 C 48.808594 106.777344 48.507812 105.507812 48.507812 104.761719 C 48.507812 104.089844 49.03125 103.492188 49.480469 103.121094 C 49.925781 102.746094 50.523438 102.523438 51.269531 102.523438 C 52.390625 102.523438 55.601562 103.492188 55.601562 103.71875 C 55.527344 103.941406 52.316406 104.015625 52.242188 103.867188 C 52.242188 103.792969 53.359375 103.195312 53.957031 103.121094 C 54.554688 103.121094 55.300781 103.34375 55.75 103.71875 C 56.273438 104.164062 56.71875 105.285156 56.71875 105.957031 C 56.71875 106.628906 56.421875 107.078125 55.972656 107.675781 C 54.929688 108.941406 52.765625 111.183594 50.003906 112.003906 C 45.523438 113.347656 33.132812 112.378906 30.445312 111.332031 C 29.550781 111.035156 29.25 110.660156 28.953125 110.136719 C 28.652344 109.691406 28.429688 108.867188 28.652344 108.273438 C 28.878906 107.601562 30.445312 106.03125 30.816406 106.179688 C 31.265625 106.40625 31.339844 109.691406 30.59375 110.363281 C 29.625 111.109375 25.890625 110.4375 24.695312 109.539062 C 23.875 108.941406 23.203125 107.75 23.351562 106.929688 C 23.429688 106.105469 24.175781 105.136719 25.292969 104.6875 C 27.832031 103.570312 37.164062 104.390625 39.625 104.914062 C 40.523438 105.0625 40.96875 105.210938 41.417969 105.585938 C 41.789062 105.957031 42.164062 106.628906 42.238281 107.226562 C 42.3125 107.824219 42.089844 108.570312 41.789062 109.09375 C 41.417969 109.539062 41.042969 109.914062 40.222656 110.136719 C 38.207031 110.660156 32.085938 109.09375 28.800781 109.316406 C 26.339844 109.464844 23.800781 111.109375 22.457031 110.660156 C 21.5625 110.4375 20.964844 109.539062 20.742188 108.941406 C 20.515625 108.347656 20.816406 107.078125 20.890625 107.078125 C 20.964844 107.078125 21.113281 109.765625 21.335938 109.839844 C 21.5625 109.839844 21.5625 106.777344 22.382812 105.734375 C 23.351562 104.539062 26.9375 104.015625 27.011719 103.269531 C 27.085938 102.824219 25.964844 102.523438 25.667969 102 C 25.445312 101.480469 25.292969 100.730469 25.519531 100.136719 C 25.890625 99.464844 26.9375 98.34375 27.832031 98.269531 C 28.878906 98.121094 30.667969 99.164062 31.5625 99.910156 C 32.386719 100.582031 33.503906 101.925781 33.28125 102.449219 C 32.984375 103.121094 29.472656 103.492188 29.25 103.195312 C 29.175781 102.972656 29.996094 102.074219 30.519531 101.777344 C 31.117188 101.554688 32.3125 101.554688 32.984375 101.851562 C 33.503906 102.074219 33.953125 102.746094 34.175781 103.269531 C 34.328125 103.792969 34.402344 104.390625 34.101562 105.136719 C 33.429688 106.703125 29.996094 109.464844 27.757812 111.332031 C 25.519531 113.050781 22.308594 115.363281 20.667969 115.886719 C 19.917969 116.183594 19.398438 116.257812 18.875 116.035156 C 18.203125 115.8125 17.082031 114.617188 17.082031 113.871094 C 17.007812 113.050781 17.980469 111.332031 18.5 111.40625 C 19.097656 111.40625 20.964844 115.289062 20.515625 115.886719 C 20.292969 116.257812 18.800781 116.183594 18.203125 115.8125 C 17.53125 115.363281 16.859375 114.019531 16.933594 113.199219 C 17.082031 112.300781 18.726562 111.78125 19.472656 110.511719 C 20.667969 108.421875 21.1875 103.792969 22.382812 101.554688 C 23.203125 99.984375 24.25 98.566406 25.144531 97.96875 C 25.667969 97.597656 26.191406 97.296875 26.710938 97.449219 C 27.382812 97.523438 28.503906 98.34375 28.800781 99.015625 C 29.027344 99.613281 28.429688 101.105469 28.429688 101.105469 " clip-rule="nonzero"/></clipPath><clipPath id="c05355c0c2"><path d="M 74.644531 101.738281 L 85.792969 101.738281 L 85.792969 107.851562 L 74.644531 107.851562 Z M 74.644531 101.738281 " clip-rule="nonzero"/></clipPath><clipPath id="99ba0a0220"><path d="M 84.191406 106.179688 C 75.53125 107.601562 75.007812 106.929688 74.785156 106.332031 C 74.5625 105.734375 74.710938 104.613281 75.15625 104.164062 C 75.679688 103.644531 77.246094 103.269531 77.917969 103.492188 C 78.515625 103.71875 79.1875 104.539062 79.339844 105.210938 C 79.414062 105.808594 79.1875 106.851562 78.667969 107.300781 C 78.070312 107.75 76.5 108.046875 75.902344 107.675781 C 75.234375 107.300781 74.636719 105.808594 74.785156 105.0625 C 74.859375 104.390625 75.382812 103.867188 76.203125 103.417969 C 77.769531 102.597656 82.847656 101.253906 84.339844 101.925781 C 85.160156 102.300781 85.757812 103.417969 85.757812 104.089844 C 85.683594 104.835938 84.191406 106.179688 84.191406 106.179688 " clip-rule="nonzero"/></clipPath><clipPath id="67e301088b"><path d="M 65.777344 105.277344 L 70.019531 105.277344 L 70.019531 108.90625 L 65.777344 108.90625 Z M 65.777344 105.277344 " clip-rule="nonzero"/></clipPath><clipPath id="0090ab37b6"><path d="M 70.007812 106.554688 C 68.140625 109.613281 66.347656 109.019531 65.976562 108.421875 C 65.601562 107.75 65.902344 105.957031 66.5 105.433594 C 67.097656 104.988281 69.484375 105.660156 69.484375 105.660156 " clip-rule="nonzero"/></clipPath><clipPath id="1d6b853132"><path d="M 65.777344 106.878906 L 70.019531 106.878906 L 70.019531 110.507812 L 65.777344 110.507812 Z M 65.777344 106.878906 " clip-rule="nonzero"/></clipPath><clipPath id="1f585bc88e"><path d="M 70.007812 108.195312 C 68.140625 111.183594 66.347656 110.660156 65.976562 109.988281 C 65.601562 109.390625 65.902344 107.523438 66.5 107.078125 C 67.097656 106.628906 69.484375 107.226562 69.484375 107.226562 " clip-rule="nonzero"/></clipPath><clipPath id="bbb1933713"><path d="M 63.652344 107.964844 L 67.929688 107.964844 L 67.929688 111.589844 L 63.652344 111.589844 Z M 63.652344 107.964844 " clip-rule="nonzero"/></clipPath><clipPath id="85f397974b"><path d="M 67.917969 109.242188 C 65.976562 112.226562 64.183594 111.707031 63.8125 111.109375 C 63.4375 110.4375 63.8125 108.644531 64.410156 108.121094 C 64.929688 107.675781 67.320312 108.347656 67.320312 108.347656 " clip-rule="nonzero"/></clipPath><clipPath id="144447b9a1"><path d="M 66.339844 107.964844 L 70.617188 107.964844 L 70.617188 111.589844 L 66.339844 111.589844 Z M 66.339844 107.964844 " clip-rule="nonzero"/></clipPath><clipPath id="79452cd775"><path d="M 70.605469 109.242188 C 68.664062 112.226562 66.871094 111.707031 66.5 111.109375 C 66.125 110.4375 66.5 108.644531 67.019531 108.121094 C 67.617188 107.675781 70.007812 108.347656 70.007812 108.347656 " clip-rule="nonzero"/></clipPath></defs><g clip-path="url(#81e85e9fb8)"><g clip-path="url(#62e20f7d6b)"><path fill="#14ae5c" d="M 1.929688 73.5625 L 65.445312 73.5625 L 65.445312 104.242188 L 1.929688 104.242188 Z M 1.929688 73.5625 " fill-opacity="1" fill-rule="nonzero"/></g></g><g clip-path="url(#2b305946c3)"><g clip-path="url(#a14090153d)"><path fill="#14ae5c" d="M 52.015625 88.789062 L 141.09375 88.789062 L 141.09375 107.003906 L 52.015625 107.003906 Z M 52.015625 88.789062 " fill-opacity="1" fill-rule="nonzero"/></g></g><g clip-path="url(#2a34558576)"><g clip-path="url(#b4b80e14b1)"><path fill="#14ae5c" d="M 112.703125 82.890625 L 170.078125 82.890625 L 170.078125 109.167969 L 112.703125 109.167969 Z M 112.703125 82.890625 " fill-opacity="1" fill-rule="nonzero"/></g></g><g clip-path="url(#72de4d6b58)"><g clip-path="url(#bba5c13963)"><path fill="#14ae5c" d="M 154.878906 66.320312 L 183.992188 66.320312 L 183.992188 97.933594 L 154.878906 97.933594 Z M 154.878906 66.320312 " fill-opacity="1" fill-rule="nonzero"/></g></g><g clip-path="url(#49628c6aa5)"><g clip-path="url(#1c290cd606)"><path fill="#14ae5c" d="M 66.722656 92.296875 L 76.808594 92.296875 L 76.808594 102.074219 L 66.722656 102.074219 Z M 66.722656 92.296875 " fill-opacity="1" fill-rule="nonzero"/></g></g><g clip-path="url(#204a1bb6b3)"><g clip-path="url(#c3d19fd96d)"><path fill="#14ae5c" d="M 66.199219 94.460938 L 76.285156 94.460938 L 76.285156 104.242188 L 66.199219 104.242188 Z M 66.199219 94.460938 " fill-opacity="1" fill-rule="nonzero"/></g></g><g clip-path="url(#17b3a095bb)"><g clip-path="url(#4a0d4755aa)"><path fill="#ffa629" d="M 13.949219 94.460938 L 71.683594 94.460938 L 71.683594 119.09375 L 13.949219 119.09375 Z M 13.949219 94.460938 " fill-opacity="1" fill-rule="nonzero"/></g></g><g clip-path="url(#c05355c0c2)"><g clip-path="url(#99ba0a0220)"><path fill="#ffa629" d="M 71.796875 98.941406 L 88.828125 98.941406 L 88.828125 110.882812 L 71.796875 110.882812 Z M 71.796875 98.941406 " fill-opacity="1" fill-rule="nonzero"/></g></g><g clip-path="url(#67e301088b)"><g clip-path="url(#0090ab37b6)"><path fill="#ffa629" d="M 62.992188 102.449219 L 73.074219 102.449219 L 73.074219 112.226562 L 62.992188 112.226562 Z M 62.992188 102.449219 " fill-opacity="1" fill-rule="nonzero"/></g></g><g clip-path="url(#1d6b853132)"><g clip-path="url(#1f585bc88e)"><path fill="#ffa629" d="M 62.992188 104.089844 L 73.074219 104.089844 L 73.074219 113.871094 L 62.992188 113.871094 Z M 62.992188 104.089844 " fill-opacity="1" fill-rule="nonzero"/></g></g><g clip-path="url(#bbb1933713)"><g clip-path="url(#85f397974b)"><path fill="#ffa629" d="M 60.824219 105.136719 L 70.910156 105.136719 L 70.910156 114.914062 L 60.824219 114.914062 Z M 60.824219 105.136719 " fill-opacity="1" fill-rule="nonzero"/></g></g><g clip-path="url(#144447b9a1)"><g clip-path="url(#79452cd775)"><path fill="#ffa629" d="M 63.511719 105.136719 L 73.597656 105.136719 L 73.597656 114.914062 L 63.511719 114.914062 Z M 63.511719 105.136719 " fill-opacity="1" fill-rule="nonzero"/></g></g><path fill="#fc7c00" d="M 32.320312 68.800781 C 26.292969 70.71875 33.101562 54.738281 33.941406 52.375 C 35.746094 48.167969 37.980469 44.1875 40.375 40.351562 C 45.105469 32.425781 50.730469 25.230469 57.472656 19.289062 C 63.238281 14.628906 69.328125 10.171875 75.988281 7.210938 C 80.109375 5.800781 83.929688 3.457031 88.128906 2.339844 C 95.734375 0.410156 103.613281 0.03125 111.351562 1.117188 C 117.367188 2.015625 123.296875 3.589844 129.332031 4.398438 C 132.546875 4.914062 135.777344 5.558594 138.773438 6.984375 C 146.949219 10.40625 153.648438 17.160156 158.027344 25.417969 C 160.492188 29.234375 162.476562 33.347656 163.78125 37.8125 C 164.609375 39.980469 165.535156 42.105469 166.035156 44.40625 C 168.488281 50.761719 169.890625 56.050781 167.71875 62.855469 C 164.882812 72.3125 154.632812 74.976562 146.910156 77.589844 C 139.117188 79.609375 131.207031 81.042969 123.195312 81.378906 C 116.925781 81.582031 110.660156 81.082031 104.394531 81.023438 C 94.246094 80.914062 84.265625 83.789062 74.097656 83.378906 C 66.492188 83.5 58.859375 83.222656 51.582031 80.515625 C 47.246094 78.984375 42.546875 78.15625 38.816406 75.113281 C 36.515625 73.195312 33.601562 71.832031 32.320312 68.800781 Z M 178.234375 124.140625 C 177.835938 120.066406 175.222656 116.40625 171.578125 115.351562 C 167.148438 113.863281 162.5 115.601562 157.941406 115.988281 C 143.5625 116.976562 129.078125 117.027344 114.910156 120.222656 C 102.121094 122.171875 89.398438 125.242188 76.449219 125.511719 C 68.8125 125.722656 61.285156 123.886719 53.660156 123.773438 C 49.308594 123.492188 45.03125 124.457031 40.707031 124.734375 C 39.355469 124.875 38.023438 124.816406 36.714844 124.40625 C 35.859375 124.121094 34.984375 123.871094 34.21875 124.546875 C 32.148438 126.230469 30.863281 131.046875 33.410156 132.808594 C 35.339844 135.78125 37.558594 138.660156 39.648438 141.554688 C 41.480469 143.847656 43.839844 145.515625 46.042969 147.335938 C 53.425781 152.5 62.316406 154.828125 70.914062 156.082031 C 83.390625 157.21875 95.890625 155.542969 108.371094 155.191406 C 119.03125 154.828125 129.253906 151.171875 139.625 148.832031 C 145.761719 147.375 152.082031 147.347656 158.179688 145.636719 C 163.253906 143.871094 168.597656 141.726562 172.488281 137.59375 C 175.75 134.101562 179.058594 129.464844 178.234375 124.140625 Z M 178.234375 124.140625 " fill-opacity="1" fill-rule="nonzero"/><path fill="#000000" d="M 181.554688 81.878906 C 180.464844 78.957031 177.695312 77.414062 175.652344 75.242188 C 178.988281 73.910156 181.042969 68.59375 177.371094 66.464844 C 175.148438 65.339844 172.621094 65.035156 170.210938 64.519531 C 169.269531 64.375 168.339844 64.132812 167.410156 63.90625 C 170.1875 54.765625 162.675781 43.375 153.886719 29.996094 C 146.304688 19.21875 139.457031 12.597656 126.664062 8.453125 C 120.753906 6.5 114.46875 6.523438 108.375 5.539062 C 86.832031 1.308594 71.8125 4.285156 52.988281 15.300781 C 49.179688 17.019531 45.847656 19.503906 42.429688 21.867188 C 38.34375 24.300781 35.085938 27.746094 32.265625 31.535156 C 29.746094 34.789062 26.917969 37.835938 24.699219 41.316406 C 20.613281 48.171875 17.785156 56.167969 17.9375 64.21875 C 17.960938 67.648438 19.71875 70.738281 22.605469 72.519531 C 22.480469 72.8125 22.363281 73.128906 22.261719 73.472656 C 20.496094 72.601562 18 72.40625 16.550781 72.609375 C 12.671875 73.257812 8.183594 74.394531 5.910156 77.882812 C 3.265625 82.355469 5.371094 85.027344 9.816406 86.570312 C 7.046875 88.355469 4.433594 90.511719 2.714844 93.363281 C 0.0625 97 0.589844 102.261719 5.867188 102.480469 C 10.300781 102.542969 14.519531 101.128906 18.804688 100.113281 C 17.546875 102.796875 16.53125 105.601562 15.320312 108.304688 C 14.203125 111.183594 11.097656 115.753906 14.390625 118.179688 C 15.417969 118.632812 16.5 118.332031 17.550781 118.160156 C 19.109375 117.960938 20.679688 117.929688 22.25 117.839844 C 15.359375 127 21.453125 138.34375 30.507812 143.703125 C 35.949219 146.90625 41.917969 148.789062 48.140625 149.730469 C 57.84375 151.386719 67.519531 152.273438 77.378906 152.476562 C 88.917969 152.839844 100.402344 151.601562 111.808594 149.910156 C 120.316406 148.957031 128.898438 149.015625 137.363281 147.625 C 146.179688 146.277344 157.300781 141.503906 163.832031 135.40625 C 171.390625 128.722656 173.707031 117.460938 166.699219 109.535156 C 165.746094 108.722656 164.085938 107.007812 162.390625 105.894531 C 162.402344 105.570312 162.40625 105.234375 162.394531 104.886719 C 168.28125 103.859375 171.347656 98.570312 169.996094 92.738281 C 172.800781 92.636719 175.703125 92 178.082031 90.457031 C 180.484375 88.546875 182.558594 84.988281 181.554688 81.878906 Z M 87.890625 85.53125 C 87.992188 85.53125 88.097656 85.53125 88.203125 85.527344 C 88.113281 85.617188 88.027344 85.703125 87.945312 85.785156 C 87.929688 85.699219 87.910156 85.617188 87.890625 85.53125 Z M 63.566406 85.410156 C 63.59375 84.617188 63.554688 83.976562 63.460938 83.457031 C 64.078125 83.535156 64.699219 83.613281 65.316406 83.691406 C 64.648438 84.402344 64.046875 85.046875 63.566406 85.410156 Z M 50.785156 84.796875 C 50.171875 84.003906 50.230469 82.917969 50.039062 81.925781 C 51.082031 82.042969 52.121094 82.152344 53.15625 82.257812 C 53.410156 82.28125 53.660156 82.308594 53.914062 82.335938 C 52.914062 83.082031 51.847656 84.058594 50.785156 84.796875 Z M 43.515625 82.398438 C 43.574219 81.917969 43.605469 81.476562 43.617188 81.0625 C 43.964844 81.121094 44.3125 81.175781 44.660156 81.230469 C 44.21875 81.636719 43.828125 82.050781 43.515625 82.398438 Z M 27.316406 76.335938 C 27.285156 76.089844 27.257812 75.84375 27.238281 75.59375 C 27.347656 75.65625 27.457031 75.71875 27.570312 75.777344 C 27.476562 75.957031 27.394531 76.144531 27.316406 76.335938 Z M 54.640625 87.082031 C 54.734375 87.527344 54.851562 87.925781 54.992188 88.28125 C 54.574219 88.226562 54.160156 88.167969 53.746094 88.113281 C 54.058594 87.78125 54.359375 87.433594 54.640625 87.082031 Z M 58.089844 82.792969 C 58.742188 82.871094 59.394531 82.949219 60.046875 83.03125 C 59.585938 83.523438 59.121094 84.136719 58.695312 84.839844 C 58.519531 83.992188 58.316406 83.316406 58.089844 82.792969 Z M 59.777344 88.746094 C 59.785156 88.796875 59.792969 88.839844 59.796875 88.886719 C 59.75 88.882812 59.703125 88.875 59.652344 88.871094 C 59.695312 88.828125 59.734375 88.789062 59.777344 88.746094 Z M 66.460938 88.546875 C 66.40625 88.949219 66.394531 89.347656 66.417969 89.730469 C 66.007812 89.671875 65.597656 89.617188 65.183594 89.566406 C 65.660156 89.214844 66.097656 88.855469 66.460938 88.546875 Z M 100.429688 84.789062 C 100.898438 84.742188 101.363281 84.695312 101.828125 84.644531 C 101.71875 84.871094 101.625 85.09375 101.566406 85.304688 C 101.328125 86.074219 101.164062 87.179688 101.132812 88.355469 C 100.746094 88.378906 100.363281 88.402344 99.976562 88.429688 C 100.527344 87.371094 100.695312 85.929688 100.429688 84.789062 Z M 122.050781 84.710938 C 121.863281 83.84375 121.644531 83.109375 121.402344 82.496094 C 122.320312 82.421875 123.234375 82.351562 124.152344 82.285156 C 123.355469 82.984375 122.769531 83.933594 122.050781 84.710938 Z M 113.605469 84.449219 C 113.496094 84.046875 113.375 83.671875 113.253906 83.320312 C 113.664062 83.273438 114.078125 83.226562 114.492188 83.183594 C 114.195312 83.578125 113.898438 84.003906 113.605469 84.449219 Z M 116.855469 87.648438 C 116.882812 87.761719 116.910156 87.871094 116.941406 87.980469 C 116.84375 87.980469 116.75 87.980469 116.652344 87.980469 C 116.722656 87.871094 116.789062 87.761719 116.855469 87.648438 Z M 126.972656 85.667969 C 127.589844 84.734375 127.726562 83 127.140625 82.0625 C 128.445312 81.964844 129.75 81.859375 131.054688 81.738281 C 131.152344 82.039062 131.292969 82.324219 131.480469 82.59375 C 131.941406 83.949219 132.210938 85.355469 132.507812 86.75 C 131.085938 87.035156 129.65625 87.269531 128.207031 87.414062 C 127.328125 87.519531 126.445312 87.605469 125.5625 87.679688 C 126.097656 87.003906 126.578125 86.3125 126.972656 85.667969 Z M 142.835938 82.859375 C 142.515625 81.9375 142.128906 81.039062 141.875 80.097656 C 143.269531 79.773438 144.648438 79.390625 146.011719 78.9375 C 146.21875 78.875 146.429688 78.8125 146.632812 78.746094 C 146.605469 79.992188 146.890625 81.414062 147.636719 82.957031 C 146.125 83.386719 144.609375 83.792969 143.085938 84.1875 C 143.109375 83.703125 143.03125 83.246094 142.835938 82.859375 Z M 33.207031 38.238281 C 40.078125 29.191406 48.9375 21.453125 59.558594 17.191406 C 66.011719 14.835938 72.8125 13.941406 79.621094 13.332031 C 85.96875 12.582031 92.304688 11.550781 98.71875 11.601562 C 103.308594 11.46875 107.753906 12.78125 112.125 14.023438 C 119.800781 15.851562 127.125 18.78125 134.527344 21.445312 C 140.789062 23.582031 146.199219 27.652344 150.6875 32.445312 C 155.410156 38.371094 158.515625 45.4375 161.007812 52.542969 C 164.722656 61.300781 163.78125 62.828125 155.523438 67.019531 C 147.101562 71.660156 137.976562 74.71875 128.648438 76.957031 C 115 80.554688 100.828125 76.742188 86.984375 76.542969 C 75.347656 76.355469 63.574219 77.40625 52.203125 74.296875 C 42.097656 72.375 31.699219 70.273438 22.847656 64.859375 C 21.875 55.003906 26.945312 45.539062 33.207031 38.238281 Z M 23.488281 100.613281 C 23.695312 100.167969 23.914062 99.695312 24.082031 99.203125 C 24.113281 99.203125 24.144531 99.199219 24.175781 99.195312 C 34.265625 97.65625 32.363281 110.453125 43.953125 107.351562 C 46.519531 106.84375 48.519531 105.078125 50.835938 104.015625 C 56.113281 102.417969 59.914062 105.734375 64.570312 107.398438 C 67.050781 108.199219 69.703125 108.144531 72.285156 107.976562 C 72.046875 108.015625 71.808594 108.0625 71.566406 108.101562 C 69.675781 108.46875 67.769531 108.695312 65.859375 108.851562 C 64.570312 108.027344 63.089844 108.371094 61.632812 109.101562 C 58.640625 109.234375 55.644531 109.308594 52.65625 109.578125 C 49.925781 109.777344 47.191406 109.941406 44.453125 110.082031 C 43.789062 109.867188 43.140625 109.929688 42.539062 110.175781 C 34.746094 110.550781 26.945312 110.769531 19.15625 111.144531 C 20.742188 107.695312 22.027344 104.117188 23.488281 100.613281 Z M 154.515625 106.875 C 153.660156 107.195312 152.796875 107.503906 151.933594 107.796875 C 151.9375 107.789062 151.941406 107.78125 151.945312 107.773438 C 152.492188 106.789062 152.34375 105.628906 152.027344 104.570312 C 152.835938 104.71875 153.648438 104.851562 154.457031 104.960938 C 154.367188 105.640625 154.378906 106.296875 154.515625 106.875 Z M 86.585938 113.152344 C 86.878906 113.113281 87.167969 113.074219 87.460938 113.03125 C 87.21875 113.355469 87.007812 113.667969 86.824219 113.949219 C 86.75 113.664062 86.671875 113.398438 86.585938 113.152344 Z M 93.546875 111.867188 C 93.574219 111.859375 93.601562 111.855469 93.628906 111.847656 C 93.609375 111.878906 93.589844 111.90625 93.570312 111.933594 C 93.5625 111.910156 93.554688 111.890625 93.546875 111.867188 Z M 103.359375 110.429688 C 103.28125 110.171875 103.199219 109.929688 103.113281 109.699219 C 103.445312 109.632812 103.777344 109.566406 104.109375 109.5 C 103.824219 109.820312 103.570312 110.136719 103.359375 110.429688 Z M 111.40625 108.378906 C 111.484375 108.371094 111.5625 108.363281 111.644531 108.355469 C 111.589844 108.449219 111.539062 108.542969 111.492188 108.628906 C 111.464844 108.542969 111.433594 108.460938 111.40625 108.378906 Z M 78.800781 113.855469 C 79.152344 113.835938 79.507812 113.816406 79.859375 113.796875 C 79.679688 114.058594 79.503906 114.332031 79.332031 114.605469 C 79.128906 114.378906 78.957031 114.125 78.800781 113.855469 Z M 40.332031 116.65625 C 40.496094 116.746094 40.691406 116.808594 40.914062 116.84375 C 40.128906 116.832031 39.292969 116.859375 38.441406 116.882812 C 39.074219 116.816406 39.703125 116.738281 40.332031 116.65625 Z M 51.664062 117.683594 C 51.078125 117.664062 50.488281 117.636719 49.898438 117.605469 C 50.484375 117.246094 51.0625 117.171875 51.664062 117.683594 Z M 59.625 116.78125 C 60.507812 116.339844 61.648438 114.921875 62.609375 115.324219 C 63.074219 116.117188 63.515625 116.796875 63.945312 117.375 C 62.214844 117.359375 60.484375 117.375 58.757812 117.433594 C 59.050781 117.226562 59.339844 117.003906 59.625 116.78125 Z M 73.375 116.589844 C 73.609375 116.972656 73.835938 117.367188 74.070312 117.761719 C 73.414062 117.742188 72.761719 117.71875 72.105469 117.691406 C 72.511719 117.359375 72.929688 116.992188 73.375 116.589844 Z M 82.75 115.984375 C 83.03125 116.476562 83.203125 117.066406 83.414062 117.628906 C 82.832031 117.675781 82.25 117.707031 81.667969 117.734375 C 82.078125 117.125 82.441406 116.511719 82.75 115.984375 Z M 89.703125 115.722656 C 89.800781 116.21875 89.929688 116.632812 90.078125 116.976562 C 89.5625 117.035156 89.046875 117.097656 88.527344 117.152344 C 88.953125 116.65625 89.34375 116.148438 89.703125 115.722656 Z M 97.335938 114.488281 C 97.445312 115.03125 97.582031 115.515625 97.734375 115.957031 C 97.015625 116.0625 96.296875 116.164062 95.578125 116.261719 C 96.246094 115.652344 96.855469 115.007812 97.335938 114.488281 Z M 143.058594 110.351562 C 142.40625 110.503906 141.753906 110.644531 141.097656 110.78125 C 141.503906 110.082031 141.839844 109.386719 142.082031 108.757812 C 142.402344 109.425781 142.726562 109.949219 143.058594 110.351562 Z M 149.128906 108.710938 C 148.875 108.789062 148.621094 108.863281 148.367188 108.941406 C 148.578125 108.664062 148.785156 108.371094 148.992188 108.070312 C 149.011719 108.328125 149.058594 108.539062 149.128906 108.710938 Z M 146.761719 105.433594 C 146.539062 104.632812 146.285156 103.980469 146.003906 103.453125 C 146.773438 103.578125 147.539062 103.71875 148.308594 103.863281 C 147.703125 104.394531 147.15625 105.011719 146.761719 105.433594 Z M 137.953125 106.296875 C 137.765625 105.707031 137.546875 105.214844 137.3125 104.804688 C 138.097656 104.117188 138.976562 103.527344 140.441406 103.253906 C 139.539062 104.097656 138.679688 105.179688 137.953125 106.296875 Z M 118.96875 109.808594 C 118.503906 108.675781 118.5625 107.375 118.167969 106.222656 C 119.0625 106.535156 119.960938 106.878906 120.882812 107.199219 C 120.171875 108.015625 119.515625 108.921875 118.96875 109.808594 Z M 76.878906 107.105469 C 78.125 106.648438 79.339844 106.070312 80.566406 105.558594 C 81.929688 105.277344 83.230469 105.316406 84.492188 105.554688 C 81.953125 106.070312 79.417969 106.601562 76.878906 107.105469 Z M 164.210938 130.15625 C 158.804688 135.128906 151.191406 135.65625 144.484375 137.757812 C 136.863281 139.042969 129.40625 141.0625 121.804688 142.417969 C 111.386719 143.570312 100.863281 142.820312 90.457031 144.238281 C 80.117188 145.492188 69.691406 148.582031 59.285156 145.960938 C 50.574219 143.167969 41.144531 142.074219 33.371094 136.96875 C 29.464844 134.09375 24.652344 128.761719 24.671875 123.675781 C 24.644531 122.660156 25.109375 121.824219 25.679688 121.03125 C 26.4375 122.289062 27.746094 123.253906 29.6875 123.652344 C 33.4375 124.3125 37.246094 123.976562 41.023438 124.105469 C 43.421875 124.394531 45.835938 124.34375 48.246094 124.429688 C 50.382812 124.582031 52.53125 124.457031 54.65625 124.191406 C 58.953125 123.792969 63.28125 124.269531 67.589844 123.972656 C 74.667969 123.410156 81.726562 122.515625 88.808594 122.023438 C 95.175781 122.015625 101.53125 122.296875 107.902344 122.234375 C 115.015625 121.683594 122.167969 120.898438 129.175781 119.5 C 132.640625 118.632812 136.171875 118.074219 139.6875 117.472656 C 142.320312 117.089844 145.019531 117.152344 147.597656 116.4375 C 152.109375 115.726562 156.585938 114.769531 159.417969 112.324219 C 161.390625 113.296875 163.292969 114.421875 164.855469 115.976562 C 168.53125 120 168.695312 126.675781 164.210938 130.15625 Z M 172.335938 85.972656 C 169.96875 85.542969 167.253906 85.5625 165.746094 87.757812 C 163.632812 90.296875 163.742188 93.660156 164.222656 96.734375 C 158.054688 98.082031 151.761719 96.242188 145.535156 96.390625 C 139.550781 96.496094 138.097656 97.964844 134.417969 102.304688 C 133.378906 103.234375 131.992188 103.5 130.65625 103.738281 C 127.953125 104.539062 125.105469 104.257812 122.601562 102.957031 C 117.570312 100.167969 111.667969 98.152344 106.027344 100.34375 C 104.011719 101.085938 102.050781 102.671875 99.800781 101.824219 C 95.6875 99.867188 91.792969 97.042969 87.058594 96.902344 C 83.351562 96.449219 80.109375 98.300781 77.121094 100.238281 C 73.3125 101.738281 68.679688 102.039062 65.21875 99.542969 C 60.941406 96.71875 57.957031 94.710938 52.535156 95.726562 C 49.828125 96.164062 47.84375 98.316406 45.308594 99.199219 C 41.734375 100.625 39.277344 99.578125 36.480469 97.183594 C 30.789062 91.234375 22.261719 94.976562 15.355469 96.117188 C 12.460938 96.226562 9.066406 97.347656 6.449219 95.730469 C 8.597656 92.839844 12.191406 91.660156 14.910156 89.449219 C 17 87.628906 18.675781 83.617188 16.109375 81.539062 C 15.253906 80.945312 14.335938 80.480469 13.414062 80.007812 C 14.96875 79.617188 16.648438 79.4375 18.226562 79.773438 C 19.222656 80.09375 20.160156 80.992188 21.261719 80.722656 C 21.570312 80.617188 21.855469 80.472656 22.121094 80.296875 C 22.359375 82.28125 22.894531 84.25 24.195312 85.789062 C 26.910156 88.449219 30.425781 90.253906 33.988281 91.507812 C 40.933594 93.265625 48.0625 94.460938 55.203125 95.089844 C 61.355469 95.546875 67.527344 95.257812 73.691406 95.230469 C 80.679688 95.148438 87.644531 95.691406 94.613281 96.199219 C 105.574219 97.304688 116.546875 95.746094 127.351562 93.953125 C 134.132812 93.070312 141.011719 92.792969 147.707031 91.328125 C 152.523438 90.09375 157.144531 88.101562 161.414062 85.5625 C 164.535156 83.367188 166.140625 79.125 165.417969 75.398438 C 165.222656 74.566406 164.453125 72.378906 163.523438 71.070312 C 164.027344 71.050781 164.515625 71.050781 164.941406 71.152344 C 168.1875 71.445312 171.4375 70.996094 174.65625 71.589844 C 173.023438 72.074219 171.503906 73.121094 171.136719 74.882812 C 170.292969 78.078125 177.292969 81.265625 178.003906 84.90625 C 176.621094 86.21875 174.148438 85.855469 172.335938 85.972656 Z M 64.613281 29.453125 C 66.65625 27.847656 68.300781 25.296875 70.859375 24.5625 C 73.816406 24.792969 73.289062 29.316406 71.777344 30.941406 C 70.707031 31.734375 69.585938 32.472656 68.707031 33.546875 C 67.539062 34.414062 66.617188 36.261719 65 36.136719 C 62.476562 35.148438 63.125 31.128906 64.613281 29.453125 Z M 88.761719 19.8125 C 99.589844 23.21875 93.703125 32.816406 90.980469 29.753906 C 89.972656 28.332031 88.335938 27.660156 86.835938 26.878906 C 82.554688 26.875 84.652344 17.824219 88.761719 19.8125 Z M 101.179688 36.125 C 99.601562 33.847656 100.957031 30.921875 102.390625 28.921875 C 103.40625 27.757812 104.132812 25.234375 106.140625 25.933594 C 108.871094 28.082031 106.652344 32.027344 104.984375 34.179688 C 104.421875 35.628906 102.707031 37.863281 101.179688 36.125 Z M 118.785156 34.597656 C 116.527344 31.484375 122.492188 23.503906 124.226562 28.867188 C 124.59375 30.667969 124.066406 33.015625 122.371094 33.964844 C 121.574219 35.242188 119.722656 36.414062 118.785156 34.597656 Z M 77.628906 37.570312 C 77.710938 36.667969 77.992188 35.746094 78.515625 35 C 78.871094 34.492188 79.472656 33.871094 80.152344 33.871094 C 81.804688 33.871094 82.160156 35.949219 82.046875 37.230469 C 81.964844 38.132812 81.683594 39.054688 81.160156 39.800781 C 80.804688 40.308594 80.203125 40.929688 79.523438 40.929688 C 77.871094 40.929688 77.515625 38.847656 77.628906 37.570312 Z M 125.710938 36.667969 C 125.792969 35.765625 126.074219 34.847656 126.597656 34.101562 C 126.953125 33.59375 127.554688 32.976562 128.234375 32.976562 C 129.882812 32.976562 130.238281 35.050781 130.125 36.332031 C 130.042969 37.230469 129.761719 38.148438 129.238281 38.894531 C 128.882812 39.402344 128.28125 40.023438 127.601562 40.023438 C 125.953125 40.023438 125.597656 37.945312 125.710938 36.667969 Z M 125.710938 36.667969 " fill-opacity="1" fill-rule="nonzero"/></svg>